<svg width="26" height="26" viewBox="0 0 26 26" fill="none" xmlns="http://www.w3.org/2000/svg">
<path d="M17.875 9.34916C17.4308 9.34916 17.0625 8.98083 17.0625 8.53666V7.04166C17.0625 5.90416 16.575 4.79916 15.73 4.03C14.8742 3.25 13.7692 2.8925 12.5992 3.00083C10.6492 3.185 8.9375 5.17833 8.9375 7.25833V8.30916C8.9375 8.75333 8.56917 9.12166 8.125 9.12166C7.68083 9.12166 7.3125 8.75333 7.3125 8.30916V7.2475C7.3125 4.33333 9.66333 1.64666 12.4475 1.37583C14.0725 1.22417 15.6325 1.73333 16.8242 2.8275C18.005 3.9 18.6875 5.43833 18.6875 7.04166V8.53666C18.6875 8.98083 18.3192 9.34916 17.875 9.34916Z" fill="#2A64F9"/>
<path d="M16.2498 24.6457H9.7498C4.7448 24.6457 3.81314 22.3165 3.5748 20.0523L2.7623 13.5632C2.64314 12.3932 2.5998 10.714 3.7373 9.45734C4.7123 8.374 6.32647 7.854 8.66647 7.854H17.3331C19.684 7.854 21.2981 8.38484 22.2623 9.45734C23.389 10.714 23.3565 12.3932 23.2373 13.5415L22.4248 20.0523C22.1865 22.3165 21.2548 24.6457 16.2498 24.6457ZM8.66647 9.479C6.83564 9.479 5.57897 9.8365 4.9398 10.5515C4.40897 11.1365 4.23564 12.0357 4.37647 13.379L5.18897 19.8682C5.37314 21.6015 5.8498 23.0315 9.7498 23.0315H16.2498C20.1498 23.0315 20.6265 21.6123 20.8106 19.8898L21.6231 13.379C21.764 12.0573 21.5906 11.1582 21.0598 10.5623C20.4206 9.8365 19.164 9.479 17.3331 9.479H8.66647Z" fill="#2A64F9"/>
<path d="M16.7055 14.2458C16.0988 14.2458 15.6113 13.7583 15.6113 13.1624C15.6113 12.5666 16.0988 12.0791 16.6947 12.0791C17.2905 12.0791 17.778 12.5666 17.778 13.1624C17.778 13.7583 17.3013 14.2458 16.7055 14.2458Z" fill="#2A64F9"/>
<path d="M9.12151 14.2458C8.51484 14.2458 8.02734 13.7583 8.02734 13.1624C8.02734 12.5666 8.51484 12.0791 9.11068 12.0791C9.70651 12.0791 10.194 12.5666 10.194 13.1624C10.194 13.7583 9.71734 14.2458 9.12151 14.2458Z" fill="#2A64F9"/>
</svg>
