<svg width="26" height="26" viewBox="0 0 26 26" fill="none" xmlns="http://www.w3.org/2000/svg">
<path d="M21.6237 9.7066C20.8979 8.90493 19.8037 8.4391 18.287 8.2766V7.45327C18.287 5.9691 17.6587 4.5391 16.5537 3.54243C15.4379 2.5241 13.9862 2.04743 12.4804 2.18827C9.89121 2.43743 7.71371 4.93993 7.71371 7.64827V8.2766C6.19704 8.4391 5.10288 8.90493 4.37704 9.7066C3.32621 10.8766 3.35871 12.4366 3.47788 13.5199L4.23621 19.5541C4.46371 21.6666 5.31954 23.8333 9.97788 23.8333H16.0229C20.6812 23.8333 21.537 21.6666 21.7645 19.5649L22.5229 13.5091C22.642 12.4366 22.6637 10.8766 21.6237 9.7066ZM12.632 3.6941C13.7154 3.5966 14.7445 3.93243 15.5462 4.65827C16.337 5.37327 16.7812 6.3916 16.7812 7.45327V8.2116H9.21954V7.64827C9.21954 5.71993 10.812 3.86743 12.632 3.6941ZM9.12204 14.2458H9.11121C8.51538 14.2458 8.02788 13.7583 8.02788 13.1624C8.02788 12.5666 8.51538 12.0791 9.11121 12.0791C9.71788 12.0791 10.2054 12.5666 10.2054 13.1624C10.2054 13.7583 9.71788 14.2458 9.12204 14.2458ZM16.7054 14.2458H16.6945C16.0987 14.2458 15.6112 13.7583 15.6112 13.1624C15.6112 12.5666 16.0987 12.0791 16.6945 12.0791C17.3012 12.0791 17.7887 12.5666 17.7887 13.1624C17.7887 13.7583 17.3012 14.2458 16.7054 14.2458Z" fill="#292D32"/>
</svg>
