<svg width="21" height="20" viewBox="0 0 21 20" fill="none" xmlns="http://www.w3.org/2000/svg">
<g id="vuesax/bold/bag-2">
<g id="bag-2">
<path id="Vector" d="M17.1338 7.4665C16.5754 6.84984 15.7338 6.4915 14.5671 6.3665V5.73317C14.5671 4.5915 14.0838 3.4915 13.2338 2.72484C12.3754 1.9415 11.2588 1.57484 10.1004 1.68317C8.10877 1.87484 6.43377 3.79984 6.43377 5.88317V6.3665C5.26711 6.4915 4.42544 6.84984 3.86711 7.4665C3.05877 8.3665 3.08377 9.5665 3.17544 10.3998L3.75877 15.0415C3.93377 16.6665 4.59211 18.3332 8.17544 18.3332H12.8254C16.4088 18.3332 17.0671 16.6665 17.2421 15.0498L17.8254 10.3915C17.9171 9.5665 17.9338 8.3665 17.1338 7.4665ZM10.2171 2.8415C11.0504 2.7665 11.8421 3.02484 12.4588 3.58317C13.0671 4.13317 13.4088 4.9165 13.4088 5.73317V6.3165H7.59211V5.88317C7.59211 4.39984 8.81711 2.97484 10.2171 2.8415ZM7.51711 10.9582H7.50877C7.05044 10.9582 6.67544 10.5832 6.67544 10.1248C6.67544 9.6665 7.05044 9.2915 7.50877 9.2915C7.97544 9.2915 8.35044 9.6665 8.35044 10.1248C8.35044 10.5832 7.97544 10.9582 7.51711 10.9582ZM13.3504 10.9582H13.3421C12.8838 10.9582 12.5088 10.5832 12.5088 10.1248C12.5088 9.6665 12.8838 9.2915 13.3421 9.2915C13.8088 9.2915 14.1838 9.6665 14.1838 10.1248C14.1838 10.5832 13.8088 10.9582 13.3504 10.9582Z" fill="#292D32"/>
</g>
</g>
</svg>
