<svg width="26" height="26" viewBox="0 0 26 26" fill="none" xmlns="http://www.w3.org/2000/svg">
<path d="M13.0003 23.4542C12.6645 23.4542 12.3395 23.4109 12.0687 23.3134C7.93033 21.8942 1.35449 16.8567 1.35449 9.41423C1.35449 5.62256 4.42033 2.5459 8.19033 2.5459C10.0212 2.5459 11.7328 3.2609 13.0003 4.53923C14.2678 3.2609 15.9795 2.5459 17.8103 2.5459C21.5803 2.5459 24.6462 5.6334 24.6462 9.41423C24.6462 16.8676 18.0703 21.8942 13.932 23.3134C13.6612 23.4109 13.3362 23.4542 13.0003 23.4542ZM8.19033 4.1709C5.31949 4.1709 2.97949 6.52173 2.97949 9.41423C2.97949 16.8134 10.097 20.9301 12.5995 21.7859C12.7945 21.8509 13.217 21.8509 13.412 21.7859C15.9037 20.9301 23.032 16.8242 23.032 9.41423C23.032 6.52173 20.692 4.1709 17.8212 4.1709C16.1745 4.1709 14.647 4.94007 13.6612 6.27257C13.3578 6.68423 12.6645 6.68423 12.3612 6.27257C11.3537 4.92923 9.83699 4.1709 8.19033 4.1709Z" fill="#03031C"/>
</svg>
