<svg width="21" height="20" viewBox="0 0 21 20" fill="none" xmlns="http://www.w3.org/2000/svg">
<g id="vuesax/outline/filter-search">
<g id="filter-search">
<path id="Vector" d="M9.60834 18.9586C9.20834 18.9586 8.80837 18.8586 8.4417 18.6586C7.70003 18.2419 7.25833 17.5003 7.25833 16.6586V12.2003C7.25833 11.7753 6.98332 11.1503 6.72499 10.8253L3.55833 7.50027C3.03333 6.97527 2.625 6.0586 2.625 5.3836V3.45028C2.625 2.10862 3.64168 1.05859 4.93335 1.05859H16.05C17.325 1.05859 18.3583 2.09194 18.3583 3.36694V5.21694C18.3583 6.09194 17.8334 7.10026 17.3334 7.59192C17.0917 7.83359 16.6917 7.83359 16.45 7.59192C16.2084 7.35026 16.2084 6.95026 16.45 6.70859C16.7584 6.40026 17.1083 5.70861 17.1083 5.21694V3.36694C17.1083 2.78361 16.6333 2.30859 16.05 2.30859H4.93335C4.34168 2.30859 3.875 2.80862 3.875 3.45028V5.3836C3.875 5.69193 4.125 6.30028 4.45 6.62528L7.65837 10.0003C8.08337 10.5253 8.49999 11.4086 8.49999 12.2003V16.6586C8.49999 17.2086 8.87501 17.4753 9.04168 17.5669C9.40001 17.7669 9.82503 17.7586 10.1584 17.5586L11.325 16.8086C11.5667 16.6669 11.8 16.2086 11.8 15.9003C11.8 15.5586 12.0833 15.2753 12.425 15.2753C12.7667 15.2753 13.05 15.5586 13.05 15.9003C13.05 16.6503 12.5833 17.5086 11.9917 17.8669L10.8334 18.6169C10.4584 18.8419 10.0333 18.9586 9.60834 18.9586Z" fill="white"/>
<path id="Vector_2" d="M13.8913 14.3914C12.0746 14.3914 10.5996 12.9164 10.5996 11.0998C10.5996 9.28312 12.0746 7.80811 13.8913 7.80811C15.708 7.80811 17.183 9.28312 17.183 11.0998C17.183 12.9164 15.708 14.3914 13.8913 14.3914ZM13.8913 9.05811C12.7663 9.05811 11.8496 9.97478 11.8496 11.0998C11.8496 12.2248 12.7663 13.1414 13.8913 13.1414C15.0163 13.1414 15.933 12.2248 15.933 11.0998C15.933 9.97478 15.0163 9.05811 13.8913 9.05811Z" fill="white"/>
<path id="Vector_3" d="M17.0588 14.8918C16.9004 14.8918 16.7421 14.8335 16.6171 14.7085L15.7838 13.8751C15.5421 13.6335 15.5421 13.2335 15.7838 12.9918C16.0255 12.7501 16.4255 12.7501 16.6671 12.9918L17.5005 13.8251C17.7421 14.0668 17.7421 14.4668 17.5005 14.7085C17.3838 14.8251 17.2171 14.8918 17.0588 14.8918Z" fill="white"/>
</g>
</g>
</svg>
