<svg width="22" height="20" viewBox="0 0 22 20" fill="none" xmlns="http://www.w3.org/2000/svg">
<g id="Social Icons" clip-path="url(#clip0_618_2018)">
<path id="Vector" fill-rule="evenodd" clip-rule="evenodd" d="M2.19868 1.40588C0.740723 2.81177 0.740723 5.07449 0.740723 9.59999V10.4C0.740723 14.9255 0.740723 17.1882 2.19868 18.5941C3.65664 20 6.00317 20 10.6963 20H11.5259C16.219 20 18.5655 20 20.0235 18.5941C21.4815 17.1882 21.4815 14.9255 21.4815 10.4V9.59999C21.4815 5.07449 21.4815 2.81177 20.0235 1.40588C18.5655 -7.62939e-06 16.219 -7.62939e-06 11.5259 -7.62939e-06H10.6963C6.00317 -7.62939e-06 3.65664 -7.62939e-06 2.19868 1.40588ZM4.24077 6.08337C4.35312 11.2834 7.04941 14.4084 11.7766 14.4084H12.0445V11.4334C13.7816 11.6 15.095 12.825 15.6222 14.4084H18.0766C17.4025 12.0417 15.6308 10.7334 14.5246 10.2334C15.6308 9.6167 17.1864 8.1167 17.558 6.08337H15.3283C14.8443 7.73337 13.4099 9.23337 12.0445 9.37503V6.08337H9.8148V11.85C8.43208 11.5167 6.68645 9.90003 6.60867 6.08337H4.24077Z" fill="#03031C"/>
</g>
<defs>
<clipPath id="clip0_618_2018">
<rect width="20.7407" height="20" fill="white" transform="translate(0.740723 -7.62939e-06)"/>
</clipPath>
</defs>
</svg>
