<svg width="26" height="26" viewBox="0 0 26 26" fill="none" xmlns="http://www.w3.org/2000/svg">
<g id="Search">
<path id="Union" d="M18.4588 17.9392C18.1659 17.6463 17.6911 17.6463 17.3982 17.9392C17.1053 18.2321 17.1053 18.7069 17.3982 18.9998L18.4588 17.9392ZM21.6787 23.2803C21.9715 23.5732 22.4464 23.5732 22.7393 23.2803C23.0322 22.9874 23.0322 22.5126 22.7393 22.2197L21.6787 23.2803ZM11.587 20.2561C7.09804 20.2561 3.45898 16.617 3.45898 12.128H1.95898C1.95898 17.4455 6.26961 21.7561 11.587 21.7561V20.2561ZM19.7151 12.128C19.7151 16.617 16.076 20.2561 11.587 20.2561V21.7561C16.9045 21.7561 21.2151 17.4455 21.2151 12.128H19.7151ZM11.587 4C16.076 4 19.7151 7.63905 19.7151 12.128H21.2151C21.2151 6.81063 16.9045 2.5 11.587 2.5V4ZM11.587 2.5C6.26961 2.5 1.95898 6.81063 1.95898 12.128H3.45898C3.45898 7.63905 7.09804 4 11.587 4V2.5ZM17.3982 18.9998L21.6787 23.2803L22.7393 22.2197L18.4588 17.9392L17.3982 18.9998Z" fill="#2A64F9"/>
</g>
</svg>
