<svg width="122" height="22" viewBox="0 0 122 22" fill="none" xmlns="http://www.w3.org/2000/svg">
<path d="M6.7 12.6H13L18.6 21H11.46L6.7 12.6ZM0.96 1.4H7.12V21H0.96V1.4ZM4.936 6.58V1.4H9.22C11.1427 1.4 12.7013 1.68933 13.896 2.268C15.1093 2.84667 15.996 3.64 16.556 4.648C17.1347 5.656 17.424 6.81333 17.424 8.12C17.424 9.408 17.1347 10.5653 16.556 11.592C15.996 12.6 15.1093 13.3933 13.896 13.972C12.7013 14.5507 11.1427 14.84 9.22 14.84H4.936V10.22H8.66C9.18267 10.22 9.612 10.1547 9.948 10.024C10.284 9.87467 10.536 9.66 10.704 9.38C10.8907 9.1 10.984 8.77333 10.984 8.4C10.984 8.008 10.8907 7.68133 10.704 7.42C10.536 7.14 10.284 6.93467 9.948 6.804C9.612 6.65467 9.18267 6.58 8.66 6.58H4.936ZM23.3655 1.4H29.6655V21H23.3655V1.4ZM42.048 11.2C42.048 12.208 42.272 13.0573 42.72 13.748C43.1867 14.42 43.7934 14.924 44.54 15.26C45.3054 15.596 46.1454 15.764 47.06 15.764C47.9934 15.764 48.796 15.6427 49.468 15.4C50.14 15.1573 50.728 14.8587 51.232 14.504C51.7547 14.1307 52.2214 13.748 52.632 13.356V19.684C51.8667 20.2067 51.0267 20.6453 50.112 21C49.216 21.3733 48.0494 21.56 46.612 21.56C44.9134 21.56 43.364 21.3173 41.964 20.832C40.564 20.3467 39.3694 19.6467 38.38 18.732C37.3907 17.8173 36.6254 16.7253 36.084 15.456C35.5427 14.1867 35.272 12.768 35.272 11.2C35.272 9.632 35.5427 8.21333 36.084 6.944C36.6254 5.67467 37.3907 4.58267 38.38 3.668C39.3694 2.75333 40.564 2.05333 41.964 1.568C43.364 1.08267 44.9134 0.839999 46.612 0.839999C48.0494 0.839999 49.216 1.01733 50.112 1.372C51.0267 1.72667 51.8667 2.17467 52.632 2.716V9.044C52.2214 8.652 51.7547 8.26933 51.232 7.896C50.728 7.52267 50.14 7.224 49.468 7C48.796 6.75733 47.9934 6.636 47.06 6.636C46.1454 6.636 45.3054 6.804 44.54 7.14C43.7934 7.476 43.1867 7.98933 42.72 8.68C42.272 9.352 42.048 10.192 42.048 11.2ZM60.3869 13.58V8.12H76.0669V13.58H60.3869ZM72.2309 1.4H78.3909V21H72.2309V1.4ZM59.0709 1.4H65.2309V21H59.0709V1.4ZM89.3691 21V16.1H99.2531V21H89.3691ZM89.3691 6.3V1.4H99.2531V6.3H89.3691ZM89.3691 13.3V8.54H98.6931V13.3H89.3691ZM85.1131 1.4H90.9931V21H85.1131V1.4ZM103.727 6.86V1.4H121.087V6.86H115.487V21H109.327V6.86H103.727Z" fill="#03031C"/>
</svg>
